<?xml version="1.0" encoding="UTF-8" standalone="no"?>
<!-- Created with Inkscape (http://www.inkscape.org/) -->

<svg
   xmlns:dc="http://purl.org/dc/elements/1.1/"
   xmlns:cc="http://creativecommons.org/ns#"
   xmlns:rdf="http://www.w3.org/1999/02/22-rdf-syntax-ns#"
   xmlns:svg="http://www.w3.org/2000/svg"
   xmlns="http://www.w3.org/2000/svg"
   xmlns:sodipodi="http://sodipodi.sourceforge.net/DTD/sodipodi-0.dtd"
   xmlns:inkscape="http://www.inkscape.org/namespaces/inkscape"
   width="744.09448819"
   height="1052.3622047"
   id="svg3368"
   version="1.1"
   inkscape:version="0.48.4 r9939"
   sodipodi:docname="New document 2">
  <defs
     id="defs3370">
    <filter
       color-interpolation-filters="sRGB"
       inkscape:menu-tooltip="Invert colors"
       inkscape:menu="Color"
       height="1"
       width="1"
       y="0"
       x="0"
       inkscape:label="Invert"
       id="filter14708">
      <feColorMatrix
         result="fbSourceGraphic"
         values="1"
         type="saturate"
         id="feColorMatrix14710" />
      <feColorMatrix
         values="-1 0 0 0 1 0 -1 0 0 1 0 0 -1 0 1 0 0 0 1 0 "
         in="fbSourceGraphic"
         id="feColorMatrix14712"
         result="fbSourceGraphic" />
      <feColorMatrix
         result="fbSourceGraphicAlpha"
         in="fbSourceGraphic"
         values="0 0 0 -1 0 0 0 0 -1 0 0 0 0 -1 0 0 0 0 1 0"
         id="feColorMatrix3369" />
      <feColorMatrix
         id="feColorMatrix3371"
         type="saturate"
         values="1"
         result="fbSourceGraphic"
         in="fbSourceGraphic" />
      <feColorMatrix
         id="feColorMatrix3373"
         in="fbSourceGraphic"
         values="-1 0 0 0 1 0 -1 0 0 1 0 0 -1 0 1 0 0 0 1 0 "
         result="fbSourceGraphic" />
      <feColorMatrix
         result="fbSourceGraphicAlpha"
         in="fbSourceGraphic"
         values="0 0 0 -1 0 0 0 0 -1 0 0 0 0 -1 0 0 0 0 1 0"
         id="feColorMatrix3375" />
      <feColorMatrix
         id="feColorMatrix3377"
         type="saturate"
         values="1"
         result="fbSourceGraphic"
         in="fbSourceGraphic" />
      <feColorMatrix
         id="feColorMatrix3379"
         in="fbSourceGraphic"
         values="-1 0 0 0 1 0 -1 0 0 1 0 0 -1 0 1 0 0 0 1 0 "
         result="fbSourceGraphic" />
      <feColorMatrix
         result="fbSourceGraphicAlpha"
         in="fbSourceGraphic"
         values="0 0 0 -1 0 0 0 0 -1 0 0 0 0 -1 0 0 0 0 1 0"
         id="feColorMatrix3381" />
      <feColorMatrix
         id="feColorMatrix3383"
         type="saturate"
         values="1"
         result="fbSourceGraphic"
         in="fbSourceGraphic" />
      <feColorMatrix
         id="feColorMatrix3385"
         in="fbSourceGraphic"
         values="-1 0 0 0 1 0 -1 0 0 1 0 0 -1 0 1 0 0 0 1 0 "
         result="fbSourceGraphic" />
      <feColorMatrix
         result="fbSourceGraphicAlpha"
         in="fbSourceGraphic"
         values="0 0 0 -1 0 0 0 0 -1 0 0 0 0 -1 0 0 0 0 1 0"
         id="feColorMatrix3387" />
      <feColorMatrix
         id="feColorMatrix3389"
         type="saturate"
         values="1"
         result="fbSourceGraphic"
         in="fbSourceGraphic" />
      <feColorMatrix
         id="feColorMatrix3391"
         in="fbSourceGraphic"
         values="-1 0 0 0 1 0 -1 0 0 1 0 0 -1 0 1 0 0 0 1 0 "
         result="fbSourceGraphic" />
      <feColorMatrix
         result="fbSourceGraphicAlpha"
         in="fbSourceGraphic"
         values="0 0 0 -1 0 0 0 0 -1 0 0 0 0 -1 0 0 0 0 1 0"
         id="feColorMatrix3399" />
      <feColorMatrix
         id="feColorMatrix3401"
         type="saturate"
         values="1"
         result="fbSourceGraphic"
         in="fbSourceGraphic" />
      <feColorMatrix
         id="feColorMatrix3403"
         in="fbSourceGraphic"
         values="-1 0 0 0 1 0 -1 0 0 1 0 0 -1 0 1 0 0 0 1 0 " />
    </filter>
  </defs>
  <sodipodi:namedview
     id="base"
     pagecolor="#ffffff"
     bordercolor="#666666"
     borderopacity="1.0"
     inkscape:pageopacity="0.0"
     inkscape:pageshadow="2"
     inkscape:zoom="0.35"
     inkscape:cx="375"
     inkscape:cy="520"
     inkscape:document-units="px"
     inkscape:current-layer="layer1"
     showgrid="false"
     inkscape:window-width="1863"
     inkscape:window-height="1056"
     inkscape:window-x="57"
     inkscape:window-y="24"
     inkscape:window-maximized="1" />
  <metadata
     id="metadata3373">
    <rdf:RDF>
      <cc:Work
         rdf:about="">
        <dc:format>image/svg+xml</dc:format>
        <dc:type
           rdf:resource="http://purl.org/dc/dcmitype/StillImage" />
        <dc:title></dc:title>
      </cc:Work>
    </rdf:RDF>
  </metadata>
  <g
     inkscape:label="Layer 1"
     inkscape:groupmode="layer"
     id="layer1">
    <g
       id="g3348"
       transform="matrix(10.190906,0,0,10.190906,-5277.2454,-2734.0044)">
      <path
         inkscape:export-ydpi="300"
         inkscape:export-xdpi="300"
         inkscape:export-filename="G:\GLUG\FSMK\Camp 14.07 \tshirts\FINALFINAL.png"
         transform="matrix(0.14880486,0,0,0.14880486,601.77704,264.8863)"
         style="fill:#000000;fill-opacity:1;filter:url(#filter14708)"
         d="m -423.28242,636.56581 c -0.11714,-0.30633 -0.16173,-14.17139 -0.0993,-30.81116 l 0.11354,-30.25409 22.1425,-0.0884 22.14254,-0.0883 -1.27716,0.96468 c -0.7025,0.53055 -2.08202,1.56549 -3.06564,2.29967 -2.66907,1.99225 -4.96802,5.30439 -6.07289,8.74987 l -0.9844,3.06913 -7.01547,0.21932 -7.01546,0.21915 0,4.16536 0,4.16555 7.20475,0.21914 7.20468,0.21927 1.41469,2.41158 c 2.87013,4.89263 6.86172,7.13985 19.07413,10.73854 4.48348,1.32122 8.92295,2.72002 9.86552,3.10858 3.30401,1.36181 4.41429,3.26643 3.21286,5.51144 -1.34315,2.50983 -8.18053,3.42463 -11.79427,1.57808 -2.70888,-1.3841 -3.52041,-2.69993 -3.87434,-6.28168 l -0.30001,-3.0356 -16.00399,0 -16.00402,0 -0.21921,11.61933 -0.21923,11.61936 -9.10852,0.11834 c -7.0482,0.0914 -9.15659,0 -9.32123,-0.43841 z m 77.32738,-0.65114 c 0.56096,-0.39337 2.03429,-1.42369 3.27392,-2.28964 1.2397,-0.86613 3.08256,-2.75578 4.09519,-4.19934 2.55976,-3.64903 3.45,-6.85109 3.42607,-12.32358 -0.0181,-4.09467 -0.12882,-4.65937 -1.43653,-7.31557 -2.94315,-5.97849 -7.74224,-8.80363 -20.58502,-12.11832 -11.27833,-2.91084 -14.53078,-4.65057 -13.23171,-7.07783 0.59861,-1.11852 3.67265,-2.5717 5.46087,-2.58145 3.6653,-0.0211 7.06639,2.1313 7.61576,4.8173 l 0.31255,1.52836 9.62832,0 9.62823,0 -0.13167,-2.41158 c -0.19943,-3.65247 -1.20822,-6.64718 -3.26764,-9.7012 -1.70575,-2.52928 -3.26156,-3.85038 -8.03887,-6.82517 -0.65786,-0.40965 2.91459,-0.52785 16.56432,-0.54807 9.57172,-0.0148 17.49239,0.12282 17.60144,0.30318 0.10905,0.1808 2.00793,7.82653 4.21961,16.99041 4.79763,19.87774 4.33268,18.19644 5.0323,18.19644 0.38129,0 1.40107,-3.44813 3.07989,-10.41364 1.38044,-5.72744 3.33031,-13.66915 4.33316,-17.64819 l 1.82329,-7.23468 18.85406,0 18.85401,0 0.1176,10.19437 c 0.0923,7.99713 0.24027,10.19419 0.68618,10.19419 0.31261,0 4.27294,-4.63663 8.8007,-10.30385 l 8.2322,-10.30385 11.14145,0 c 6.12783,0 11.14143,0.16538 11.14143,0.36759 0,0.20224 -4.5591,5.28286 -10.13138,11.29038 -5.57223,6.00757 -10.33276,11.35245 -10.57893,11.87734 -0.39372,0.83976 1.08806,3.17789 12.30868,19.42176 7.88801,11.41937 12.54992,18.54619 12.21563,18.67459 -0.29734,0.11384 -5.55983,0.15455 -11.69452,0.0899 l -11.1539,-0.11685 -6.92212,-10.96163 c -8.3487,-13.22049 -7.99727,-12.76692 -9.24781,-11.93661 -0.52314,0.34739 -1.74438,1.56687 -2.71392,2.71013 l -1.76292,2.07841 -0.21922,9.05485 -0.21921,9.05485 -14.03092,0 -14.03085,0 -0.1143,-19.18284 c -0.0946,-15.88227 -0.21747,-19.18285 -0.71418,-19.18285 -0.38704,0 -1.01271,1.51713 -1.76313,4.27503 -0.63981,2.35117 -2.98216,10.98347 -5.20519,19.18285 l -4.0419,14.90781 -6.91013,0.1213 c -6.82566,0.11986 -6.91534,0.10939 -7.33379,-0.87688 -0.32923,-0.77548 -6.64417,-23.91579 -9.63538,-35.30775 -0.29182,-1.1112 -0.74613,-1.86345 -1.12546,-1.86345 -0.54434,0 -0.65269,2.7375 -0.75048,18.96366 l -0.11429,18.96357 -11.18089,0.0914 c -10.44707,0.0854 -11.11396,0.0436 -10.16075,-0.6239 z"
         id="path4271-9-5-9-6-9"
         inkscape:connector-curvature="0" />
      <path
         inkscape:export-ydpi="300"
         inkscape:export-xdpi="300"
         inkscape:export-filename="G:\GLUG\FSMK\Camp 14.07 \tshirts\FINALFINAL.png"
         id="path3367"
         d="m 555.16497,283.05817 c -17.16028,0 -31.09375,13.90222 -31.09375,31.0625 0,17.16028 13.93347,31.0625 31.09375,31.0625 0.47319,0 0.93822,-0.0103 1.40625,-0.0312 -0.0742,-0.51741 -0.13631,-1.15824 -0.21875,-2.125 -0.14974,-1.75586 -0.50651,-4.47051 -0.8125,-6.03125 -0.8002,-4.08157 -0.82808,-4.18487 -0.625,-4.71875 0.10145,-0.26671 1.05048,-1.43831 2.09375,-2.59375 l 1.90625,-2.0938 0.40625,-2.09375 c 0.37694,-1.94061 0.35536,-2.20758 0,-3.78125 -0.2103,-0.93122 -0.375,-1.91722 -0.375,-2.21875 0,-1.8727 -2.12163,0.12532 -2.15625,2.03125 -0.008,0.4375 -0.20407,1.3784 -0.4375,2.09375 -0.42141,1.2914 -0.42467,1.30194 -0.6875,0.65625 -0.14559,-0.35767 -0.41067,-0.65625 -0.59375,-0.65625 -0.32298,0 -2.8933,3.42674 -3.59375,4.78125 -0.51191,0.98992 -0.65343,2.4973 -0.375,4 0.25771,1.39087 0.0971,9.90625 -0.1875,9.90625 -0.14991,0 -1.45138,-9.98388 -1.4375,-11.03125 0.008,-0.62131 -1.19957,-1.64666 -3.09375,-2.65625 -1.17951,-0.62867 -1.4006,-0.87877 -1.71875,-1.8125 -0.77801,-2.28332 -2.94409,-5.0625 -3.9375,-5.0625 -0.49321,0 -0.49661,0.0744 -0.34375,1.09375 l 0.15625,1.09375 -0.53125,-0.375 c -0.61981,-0.43413 -1.40625,-0.53324 -1.40625,-0.15625 0,0.13936 0.70607,1.65949 1.5625,3.34375 1.48519,2.92077 1.65832,3.11272 3.5,4.65625 2.92532,2.45173 2.76713,2.19813 2.5625,4.65625 -0.1621,1.94725 -0.1968,2.11781 -0.6875,2.1875 -0.40472,0.0575 -0.53125,-0.034 -0.53125,-0.40625 0,-0.26917 -0.15691,-0.5 -0.3125,-0.5 -0.28456,0 -1.91808,-1.04329 -2.5,-1.59375 -0.17187,-0.16258 -0.50374,-0.28125 -0.75,-0.28125 -0.24626,0 -0.56406,-0.20685 -0.6875,-0.4375 -0.70177,-1.31128 -1.63938,-7.04812 -1.21875,-7.46875 0.15251,-0.15251 0.14441,-0.35134 -0.0625,-0.59375 -0.17358,-0.20338 -0.4835,-0.85222 -0.6875,-1.4375 -0.204,-0.58528 -0.67741,-1.92825 -1.0625,-2.96875 -0.38509,-1.0405 -0.77857,-2.35222 -0.875,-2.9375 -0.20681,-1.25518 -1.15108,-2.97395 -1.90625,-3.46875 -0.85936,-0.56307 -0.92234,-1.25331 -0.125,-1.53125 0.54506,-0.19001 0.73032,-0.4464 0.9375,-1.34375 0.14057,-0.60885 0.24557,-1.54226 0.25,-2.0625 0.01,-1.14386 -0.3443,-3.6156 -0.59375,-4.1875 -0.13519,-0.30994 -0.0476,-0.40355 0.28125,-0.40625 0.75338,-0.006 1.02884,-0.3529 1.75,-2.125 0.89142,-2.19047 0.87346,-2.73581 0,-3.1875 -0.45905,-0.23738 -0.70514,-0.59754 -0.8125,-1.125 -0.13725,-0.67427 -0.0824,-0.88795 0.5625,-1.46875 0.53628,-0.48302 0.81494,-0.59132 1,-0.40625 0.43393,0.43392 0.92031,0.3 1.875,-0.5625 0.50387,-0.45522 1.11203,-0.84375 1.375,-0.84375 0.28079,0 0.56653,-0.21308 0.6875,-0.53125 0.36987,-0.97282 0.8471,-1.19968 1.65625,-0.78125 0.94388,0.48809 1.33668,0.47581 1.90625,-0.0937 0.32308,-0.32308 0.81345,-0.46655 1.5,-0.46875 0.55277,-0.002 1.25624,-0.0743 1.5625,-0.15625 0.52977,-0.14182 0.54977,-0.23253 0.4375,-1.71875 -0.0649,-0.8592 -0.19108,-1.78429 -0.28125,-2.0625 -0.16352,-0.50451 -0.1893,-0.51515 1.1875,-0.15625 0.75926,0.19792 2.41939,0.40877 3.6875,0.46875 l 2.3125,0.125 0,-1.40625 c 0,-1.28686 0.076,-1.43919 0.75,-1.9375 0.49917,-0.36906 0.91498,-0.49075 1.34375,-0.40625 0.91215,0.17975 2.8563,-1.8617 3.09375,-3.25 0.0801,-0.46842 0.12828,-0.69405 0.25,-0.8125 -2.06194,-0.43095 -4.18507,-0.65625 -6.375,-0.65625 z m 12.09375,2.4375 c -0.0981,0.17146 -0.18927,0.37303 -0.375,0.59375 -0.32516,0.38643 -0.59375,0.84437 -0.59375,1.03125 0,0.18687 -0.13066,0.54012 -0.28125,0.78125 -0.36347,0.58201 -0.10957,1.15821 0.625,1.4375 0.71981,0.27366 0.75013,0.51585 0.125,0.90625 -0.58384,0.36461 -1.65625,2.01909 -1.65625,2.5625 0,0.22181 0.18843,0.63774 0.4375,0.90625 0.4184,0.45106 0.44103,0.64312 0.21875,2.71875 -0.25251,2.35798 -0.42754,2.75729 -1.3125,3.09375 -0.29799,0.11329 -0.53125,0.36753 -0.53125,0.5625 0,0.41623 1.1676,1.09375 1.90625,1.09375 0.44985,0 0.50429,0.0723 0.375,0.71875 -0.0813,0.40645 -0.15625,1.25691 -0.15625,1.875 l 0,1.125 -1.03125,-0.125 c -1.13335,-0.12775 -2.55322,0.24291 -3,0.78125 -0.2165,0.26087 -0.20631,0.50192 0,1 0.22499,0.54318 0.17881,0.80214 -0.21875,1.625 -0.63009,1.30414 -0.58676,1.67536 0.25,2.78125 1.2409,1.64002 0.783,2.9491 -0.90625,2.625 -1.6331,-0.31332 -1.82302,-0.27513 -1.90625,0.3125 -0.0467,0.32991 0.0874,0.68752 0.34375,0.875 0.41019,0.29994 0.42442,0.34065 0.0312,1.4375 -0.60248,1.68084 -0.55673,2.34921 0.28125,2.96875 0.47727,0.35286 0.62857,0.59017 0.46875,0.75 -0.3839,0.3839 -0.27641,0.84859 0.34375,1.46875 0.71646,0.71647 1.47269,0.73402 2.1875,0.0625 0.4521,-0.42473 0.65984,-0.46195 1.125,-0.25 0.68556,0.31236 0.89759,1.0152 0.53125,1.75 -0.48027,0.96333 -2.09626,0.86703 -2.5625,-0.15625 -0.35721,-0.784 -1.37711,-0.83288 -1.375,-0.0625 6.8e-4,0.29264 0.1501,0.84744 0.34375,1.21875 0.22906,0.43919 0.31148,0.98257 0.21875,1.5625 -0.0888,0.55509 -0.0417,0.95945 0.125,1.0625 0.46576,0.28785 1.71751,-0.14224 1.84375,-0.625 0.23533,-0.8999 2.4375,-0.0823 2.4375,0.90625 0,0.74673 3.08665,-0.31654 3.71875,-1.28125 0.33962,-0.51833 0.40129,-0.53136 0.78125,-0.1875 0.27518,0.24903 0.61882,0.32225 1.03125,0.21875 0.59406,-0.1491 0.625,-0.109 0.625,0.84375 0,1.1926 0.64344,1.89427 1.8125,1.90625 0.76099,0.008 0.78125,0.0139 0.78125,1.15625 0,1.05606 0.0453,1.17147 0.6875,1.4375 0.38588,0.15983 0.8074,0.40573 0.9375,0.5625 0.39195,0.47226 -0.55163,2.08905 -1.96875,3.3125 -1.20745,1.04244 -1.3411,1.09527 -1.84375,0.78125 -0.2956,-0.18468 -0.96936,-0.39036 -1.5,-0.46875 -1.07463,-0.15875 -1.60154,0.10187 -2.0625,1.03125 -0.18259,0.36811 -0.53359,0.60937 -0.9375,0.65625 -0.76438,0.0887 -1.00554,0.78487 -0.78125,2.1875 0.15422,0.96447 -0.0745,1.3243 -1.1875,2.03125 -0.44469,0.28246 -0.4514,0.2992 0,0.65625 0.25247,0.19968 0.71034,0.375 1,0.375 0.62332,0 0.98856,0.16174 1.15625,0.40625 10.85029,-4.84671 18.40625,-15.72334 18.40625,-28.375 0,-12.87021 -7.81675,-23.9081 -18.96875,-28.625 z m -10.28125,21.90625 c -0.0535,-0.002 -0.12145,0.01 -0.15625,0.0312 -0.13921,0.086 -0.815,1.03739 -1.53125,2.125 -1.37487,2.08772 -4.46955,5.31135 -5.09375,5.3125 -0.20315,3.4e-4 -0.61777,-0.29731 -0.90625,-0.6875 -0.68187,-0.92228 -1.05835,-0.88836 -1.65625,0.125 -0.26859,0.45522 -0.59221,0.8125 -0.71875,0.8125 -0.12654,0 -0.70377,-0.38727 -1.28125,-0.875 -0.57748,-0.48774 -1.92609,-1.65206 -3,-2.5625 -3.49575,-2.96362 -3.92977,-3.10758 -3.6875,-1.28125 0.32915,2.48123 1.99456,6.30706 3.3125,7.625 0.72208,0.72208 0.98091,0.81748 2.375,0.90625 0.8566,0.0546 1.68349,0.24599 1.84375,0.40625 0.23086,0.23086 -0.005,0.2711 -1.125,0.21875 -1.39037,-0.065 -1.42549,-0.0554 -1.5,0.59375 -0.12768,1.11231 0.95863,2.63794 2.375,3.34375 1.40799,0.70163 2.12868,0.77272 2.5625,0.25 0.21001,-0.25304 0.36024,-0.29602 0.53125,-0.125 0.63151,0.63151 2.56264,-0.0639 3.875,-1.40625 0.94428,-0.96583 1.15764,-1.76603 0.65625,-2.53125 -0.36101,-0.55097 -0.46973,-0.58965 -1.6875,-0.4375 -0.84375,0.10542 -1.24997,0.0891 -1.15625,-0.0625 0.0798,-0.12906 0.69232,-0.31569 1.375,-0.40625 0.68268,-0.0906 1.58085,-0.30512 2,-0.5 1.01372,-0.47134 2.0474,-2.1224 2.5,-3.9375 1.27263,-5.10371 1.37282,-6.00776 0.65625,-6.65625 -0.18895,-0.171 -0.40196,-0.27419 -0.5625,-0.28125 z"
         style="fill:#000000;fill-opacity:1;fill-rule:nonzero"
         inkscape:connector-curvature="0" />
      <g
         inkscape:export-ydpi="300"
         inkscape:export-xdpi="300"
         inkscape:export-filename="G:\GLUG\FSMK\Camp 14.07 \tshirts\FINALFINAL.png"
         transform="matrix(0,0.95047638,-1,0,882.82386,-209.75105)"
         id="text6205-3"
         style="font-size:8.25193119px;font-style:normal;font-variant:normal;font-weight:normal;font-stretch:normal;text-align:center;line-height:125%;letter-spacing:0px;word-spacing:0px;text-anchor:middle;fill:#000000;fill-opacity:1;stroke:none;font-family:Segoe UI;-inkscape-font-specification:Segoe UI">
        <path
           inkscape:connector-curvature="0"
           id="path6534"
           style="font-weight:bold;-inkscape-font-specification:Segoe UI Bold"
           d="m 528.12999,359.29701 c 0.11074,0.1369 0.23154,0.24245 0.36239,0.31665 0.35518,0.20138 0.64208,0.1093 0.86068,-0.27625 l 0.21663,-0.38205 -0.82018,-0.46505 0.46306,-0.81667 0.82018,0.46505 1.57202,-2.77249 1.10409,0.62603 -1.57202,2.77248 0.60286,0.34183 -0.46306,0.81668 -0.60287,-0.34183 -0.25239,0.44513 c -0.23186,0.40892 -0.55187,0.66287 -0.96002,0.76186 -0.40814,0.099 -0.84121,0.0186 -1.29921,-0.24105 -0.22432,-0.12719 -0.398,-0.25656 -0.52106,-0.38808 z" />
        <path
           inkscape:connector-curvature="0"
           id="path6536"
           style="font-weight:bold;-inkscape-font-specification:Segoe UI Bold"
           d="m 526.36264,355.42984 c 0.0768,0.15647 0.19845,0.29373 0.36501,0.41177 0.22574,0.15997 0.4608,0.20226 0.70518,0.12688 0.24438,-0.0754 0.46752,-0.25554 0.66943,-0.54045 l 1.13923,-1.60757 1.03883,0.73619 -2.38563,3.36636 -1.03883,-0.73619 0.44264,-0.62462 -0.0131,-0.009 c -0.48742,0.33938 -0.94482,0.35763 -1.37219,0.0548 -0.10958,-0.0777 -0.18573,-0.15138 -0.22847,-0.22117 z" />
        <path
           inkscape:connector-curvature="0"
           id="path6538"
           style="font-weight:bold;-inkscape-font-specification:Segoe UI Bold"
           d="m 523.72493,351.39692 1.99277,1.80923 c 0.37083,-0.47239 0.29274,-0.94783 -0.2343,-1.42632 -0.3361,-0.30515 -0.70366,-0.49373 -1.10268,-0.56575 l 0.61753,-0.68016 c 0.41963,0.10525 0.85518,0.36281 1.30663,0.77269 0.49322,0.44779 0.75193,0.9321 0.77612,1.45293 0.0242,0.52083 -0.1858,1.02586 -0.62999,1.5151 -0.46043,0.50714 -0.97233,0.77526 -1.53571,0.80436 -0.56338,0.0291 -1.05985,-0.15136 -1.48944,-0.54137 -0.44548,-0.40446 -0.66996,-0.84954 -0.67345,-1.33523 -0.003,-0.4857 0.20063,-0.95527 0.6123,-1.40871 z m 0.34864,1.37231 c -0.39723,0.43753 -0.41885,0.817 -0.0648,1.1384 0.15116,0.13722 0.3388,0.1933 0.56292,0.16822 0.22414,-0.0251 0.433,-0.12027 0.62659,-0.28555 z" />
        <path
           inkscape:connector-curvature="0"
           id="path6540"
           style="font-weight:bold;-inkscape-font-specification:Segoe UI Bold"
           d="m 520.67609,347.81342 1.72332,2.06751 c 0.43261,-0.41654 0.42104,-0.89821 -0.0347,-1.44501 -0.29066,-0.34871 -0.62859,-0.58633 -1.01381,-0.71286 l 0.70568,-0.58819 c 0.40104,0.16229 0.79676,0.47763 1.18717,0.94601 0.42653,0.51173 0.61575,1.02717 0.56766,1.54633 -0.0481,0.51917 -0.32593,0.9903 -0.83353,1.41339 -0.52616,0.43857 -1.07023,0.63329 -1.63222,0.58417 -0.56198,-0.0491 -1.02872,-0.29652 -1.40022,-0.74221 -0.38525,-0.4622 -0.546,-0.93405 -0.48226,-1.41556 0.0637,-0.48151 0.33085,-0.91833 0.80129,-1.31046 z m 0.15544,1.40734 c -0.45394,0.37838 -0.52784,0.7512 -0.22171,1.11849 0.13071,0.15681 0.30879,0.23831 0.53423,0.24447 0.22545,0.006 0.44548,-0.0592 0.66007,-0.19611 z" />
        <path
           inkscape:connector-curvature="0"
           id="path6542"
           style="font-weight:bold;-inkscape-font-specification:Segoe UI Bold"
           d="m 518.71974,341.14441 0.56142,1.06594 -0.52406,0.27601 0.008,0.0143 c 0.53773,0.0295 0.93302,0.28429 1.18588,0.76437 0.18651,0.35413 0.23287,0.68568 0.13907,0.99466 -0.0938,0.30898 -0.30826,0.55172 -0.64337,0.72822 -0.70825,0.37303 -1.33798,0.16886 -1.88919,-0.61253 l -0.65389,-0.9216 c -0.39928,0.2103 -0.48501,0.53173 -0.25719,0.96428 0.22908,0.43493 0.57642,0.78025 1.04201,1.03596 l -0.84847,0.44689 c -0.16342,-0.1143 -0.34769,-0.29125 -0.55282,-0.53083 -0.20512,-0.23958 -0.36651,-0.47108 -0.48418,-0.69448 -0.54828,-1.04099 -0.30311,-1.83499 0.73549,-2.38202 z m -0.92538,1.83992 -0.24599,0.12955 0.43481,0.61803 c 0.24031,0.34098 0.50188,0.43698 0.7847,0.28802 0.12834,-0.0676 0.21004,-0.16755 0.24509,-0.29986 0.035,-0.13231 0.0125,-0.27452 -0.0676,-0.42663 -0.11141,-0.21152 -0.27524,-0.34534 -0.49151,-0.40145 -0.21626,-0.0561 -0.4361,-0.0253 -0.65951,0.0923 z" />
        <path
           inkscape:connector-curvature="0"
           id="path6544"
           style="font-weight:bold;-inkscape-font-specification:Segoe UI Bold"
           d="m 518.32255,340.49368 -0.96613,0.36132 c 0.0449,-0.24047 0.0598,-0.46902 0.0447,-0.68565 -0.015,-0.21663 -0.055,-0.41175 -0.11997,-0.58535 -0.079,-0.21134 -0.17031,-0.36721 -0.27381,-0.46759 -0.10351,-0.10038 -0.21438,-0.12846 -0.33264,-0.0842 -0.0755,0.0282 -0.12802,0.0794 -0.15764,0.1536 -0.0296,0.0742 -0.0471,0.16171 -0.0524,0.26263 -0.005,0.10091 -0.004,0.2086 0.005,0.32304 0.008,0.11445 0.0116,0.22653 0.01,0.33625 -4.7e-4,0.17512 -0.0122,0.33364 -0.0351,0.47557 -0.0229,0.14193 -0.0636,0.26899 -0.12201,0.38117 -0.0584,0.11219 -0.13773,0.21068 -0.23795,0.29548 -0.1002,0.0848 -0.22956,0.15683 -0.38807,0.21611 -0.21637,0.0809 -0.4202,0.10338 -0.61148,0.0674 -0.19127,-0.036 -0.366,-0.11406 -0.5242,-0.23414 -0.15818,-0.12008 -0.29842,-0.27269 -0.42072,-0.45782 -0.12229,-0.18513 -0.22436,-0.38714 -0.30623,-0.60603 -0.064,-0.17108 -0.1157,-0.34962 -0.15515,-0.53562 -0.0394,-0.186 -0.066,-0.37395 -0.0797,-0.56386 l 0.92085,-0.34439 c -0.0316,0.1839 -0.0372,0.37025 -0.0168,0.55906 0.0204,0.18881 0.0617,0.36624 0.12379,0.5323 0.0292,0.078 0.0636,0.149 0.10332,0.21301 0.0397,0.064 0.0827,0.1175 0.12884,0.16046 0.0462,0.0429 0.0957,0.0718 0.14847,0.0864 0.0528,0.0147 0.10563,0.0121 0.15846,-0.008 0.0705,-0.0263 0.12237,-0.0716 0.15575,-0.13568 0.0334,-0.0641 0.0547,-0.13946 0.0639,-0.22607 0.009,-0.0866 0.0116,-0.17998 0.007,-0.28012 -0.004,-0.10013 -0.008,-0.19988 -0.0108,-0.29923 -0.004,-0.17921 0.003,-0.3452 0.0203,-0.49798 0.0174,-0.15278 0.053,-0.29155 0.10672,-0.41632 0.0537,-0.12476 0.13052,-0.23379 0.23042,-0.32708 0.0999,-0.0933 0.23163,-0.17051 0.39517,-0.23167 0.22895,-0.0856 0.44315,-0.10909 0.6426,-0.0704 0.19945,0.0387 0.38094,0.12138 0.54447,0.24806 0.16353,0.1267 0.30879,0.28889 0.43578,0.4866 0.127,0.19771 0.23378,0.4123 0.32035,0.64377 0.15902,0.4252 0.24086,0.84342 0.24552,1.25465 z" />
        <path
           inkscape:connector-curvature="0"
           id="path6546"
           style="font-weight:bold;-inkscape-font-specification:Segoe UI Bold"
           d="m 511.76362,334.85614 c 0.041,0.21094 0.012,0.39583 -0.0871,0.55467 -0.0991,0.15884 -0.23958,0.25596 -0.42152,0.29136 -0.1872,0.0364 -0.35321,-0.001 -0.49804,-0.11244 -0.14481,-0.11139 -0.23774,-0.27255 -0.27879,-0.48349 -0.0415,-0.21357 -0.0159,-0.39848 0.0768,-0.55472 0.0927,-0.15624 0.23272,-0.25258 0.41993,-0.289 0.18985,-0.0369 0.35837,-6.3e-4 0.50556,0.10892 0.1472,0.10956 0.24158,0.27112 0.28313,0.4847 z m 4.57069,-1.52968 0.24318,1.24981 -4.05002,0.78802 -0.24318,-1.24981 z" />
        <path
           inkscape:connector-curvature="0"
           id="path6548"
           style="font-weight:bold;-inkscape-font-specification:Segoe UI Bold"
           d="m 515.80576,328.2913 0.0982,1.26541 -2.28579,0.17736 c -0.63739,0.0495 -0.93842,0.30182 -0.9031,0.7571 0.017,0.21961 0.11543,0.39384 0.29516,0.52269 0.17974,0.12885 0.3995,0.18319 0.65927,0.16304 l 2.34604,-0.18203 0.0985,1.26943 -4.1136,0.31917 -0.0985,-1.26943 0.65079,-0.0505 -10e-4,-0.0161 c -0.52429,-0.26377 -0.80888,-0.68489 -0.85376,-1.26337 -0.0707,-0.91056 0.45911,-1.40968 1.58927,-1.49738 z" />
        <path
           inkscape:connector-curvature="0"
           id="path6550"
           style="font-weight:bold;-inkscape-font-specification:Segoe UI Bold"
           d="m 511.19185,321.72345 c -0.0835,0.15505 -0.13412,0.30725 -0.15198,0.45661 -0.0485,0.40542 0.14735,0.63443 0.58743,0.68704 l 0.43609,0.0521 0.11192,-0.93618 0.93218,0.11144 -0.11192,0.93618 3.16461,0.37833 -0.15066,1.26025 -3.16462,-0.37833 -0.0823,0.68813 -0.93218,-0.11144 0.0823,-0.68813 -0.50809,-0.0607 c -0.46676,-0.0558 -0.82465,-0.25278 -1.0737,-0.59096 -0.24903,-0.33818 -0.3423,-0.76865 -0.27981,-1.29142 0.0306,-0.25605 0.0828,-0.46623 0.15654,-0.63056 z" />
        <path
           inkscape:connector-curvature="0"
           id="path6552"
           style="font-weight:bold;-inkscape-font-specification:Segoe UI Bold"
           d="m 514.07634,318.59771 c -0.11468,0.13124 -0.19431,0.29648 -0.23887,0.4957 -0.0604,0.27001 -0.009,0.50317 0.15527,0.69947 0.16391,0.19632 0.41626,0.33258 0.75704,0.4088 l 1.9228,0.43008 -0.27793,1.24255 -4.02647,-0.90062 0.27792,-1.24254 0.7471,0.1671 0.004,-0.0157 c -0.50127,-0.31856 -0.69474,-0.73343 -0.58041,-1.24461 0.0293,-0.13107 0.0679,-0.22978 0.11579,-0.29615 z" />
        <path
           inkscape:connector-curvature="0"
           id="path6554"
           style="font-weight:bold;-inkscape-font-specification:Segoe UI Bold"
           d="m 516.78389,314.6067 -0.90304,2.53554 c 0.57872,0.16049 0.98749,-0.0946 1.22632,-0.76513 0.1523,-0.42765 0.18492,-0.83948 0.0978,-1.23548 l 0.86542,0.30822 c 0.0643,0.42783 -0.006,0.92895 -0.21036,1.50336 -0.2235,0.62756 -0.57096,1.05272 -1.04237,1.27547 -0.47141,0.22276 -1.01836,0.22329 -1.64086,0.002 -0.64527,-0.22982 -1.08973,-0.59912 -1.33339,-1.10792 -0.24366,-0.50879 -0.26816,-1.03648 -0.0735,-1.58306 0.20188,-0.56683 0.5263,-0.9453 0.97325,-1.13542 0.44696,-0.19012 0.95891,-0.18244 1.53586,0.023 z m -1.13246,0.84989 c -0.55671,-0.19827 -0.91527,-0.0722 -1.07569,0.37823 -0.0685,0.19232 -0.048,0.38709 0.0614,0.5843 0.10941,0.19723 0.27763,0.35338 0.50468,0.46846 z" />
        <path
           inkscape:connector-curvature="0"
           id="path6556"
           style="font-weight:bold;-inkscape-font-specification:Segoe UI Bold"
           d="m 518.92575,310.41442 -1.24886,2.38428 c 0.55057,0.23987 0.991,0.0445 1.32129,-0.58606 0.21064,-0.40213 0.30054,-0.80534 0.26972,-1.20964 l 0.81379,0.42626 c 0.004,0.43262 -0.13567,0.919 -0.4186,1.45915 -0.3091,0.59012 -0.71262,0.96249 -1.21055,1.11711 -0.49794,0.15462 -1.03959,0.0786 -1.62495,-0.22798 -0.60677,-0.31783 -0.9952,-0.74568 -1.16529,-1.28356 -0.17008,-0.53787 -0.12052,-1.0638 0.14869,-1.57778 0.27919,-0.533 0.65336,-0.86237 1.12252,-0.9881 0.46916,-0.12572 0.975,-0.0465 1.51753,0.23767 z m -1.24022,0.68311 c -0.52349,-0.2742 -0.89616,-0.19952 -1.11802,0.22403 -0.0947,0.18084 -0.10172,0.37656 -0.021,0.58714 0.0807,0.21059 0.22546,0.38873 0.43418,0.53444 z" />
        <path
           inkscape:connector-curvature="0"
           id="path6558"
           style="font-weight:bold;-inkscape-font-specification:Segoe UI Bold"
           d="m 523.22165,307.29742 -0.7523,1.02723 -0.45835,-0.33568 -0.01,0.013 c 0.18834,0.49751 0.11665,0.97274 -0.21506,1.42567 -0.30473,0.4161 -0.69676,0.64339 -1.17611,0.68189 -0.47934,0.0385 -0.98232,-0.13508 -1.50894,-0.52075 -0.55045,-0.40313 -0.8891,-0.86589 -1.01594,-1.38829 -0.12683,-0.52239 -0.0244,-1.01006 0.30732,-1.46299 0.31425,-0.4291 0.68714,-0.61548 1.11867,-0.55915 l 0.01,-0.013 -1.9797,-1.44984 0.7523,-1.02723 z m -2.35688,-0.17786 -0.25031,-0.18331 c -0.21671,-0.15871 -0.44261,-0.2276 -0.6777,-0.20666 -0.23508,0.021 -0.42643,0.1322 -0.57403,0.33374 -0.16665,0.22755 -0.2074,0.47073 -0.12225,0.72953 0.0851,0.2588 0.28376,0.50247 0.59583,0.73102 0.29256,0.21426 0.56318,0.31756 0.81185,0.30989 0.24867,-0.008 0.45315,-0.12094 0.61345,-0.33983 0.15237,-0.20804 0.19312,-0.43872 0.12228,-0.69205 -0.0708,-0.25332 -0.24389,-0.48076 -0.51912,-0.68233 z" />
        <path
           inkscape:connector-curvature="0"
           id="path6560"
           style="font-weight:bold;-inkscape-font-specification:Segoe UI Bold"
           d="m 525.39574,305.16939 c -0.48851,0.48399 -1.00818,0.72755 -1.55903,0.73068 -0.55085,0.003 -1.05882,-0.23001 -1.52389,-0.69944 -0.4802,-0.48468 -0.71092,-1.00763 -0.69217,-1.56882 0.0188,-0.5612 0.27525,-1.08662 0.76948,-1.57628 0.4866,-0.48208 1.0039,-0.72328 1.55188,-0.72358 0.54799,-3e-4 1.04507,0.22473 1.49124,0.67506 0.48209,0.48661 0.7204,1.01243 0.71492,1.57749 -0.005,0.56505 -0.25629,1.09335 -0.75243,1.58489 z m -2.33651,-2.40415 c -0.21372,0.21174 -0.30695,0.44969 -0.27969,0.71383 0.0273,0.26415 0.17418,0.53076 0.44075,0.79981 0.55771,0.56293 1.06365,0.61942 1.51781,0.16947 0.43316,-0.42915 0.36333,-0.93283 -0.20951,-1.51103 -0.54259,-0.54765 -1.03237,-0.60502 -1.46936,-0.17208 z" />
        <path
           inkscape:connector-curvature="0"
           id="path6562"
           style="font-weight:bold;-inkscape-font-specification:Segoe UI Bold"
           d="m 532.97938,299.28864 -1.0585,0.70034 -1.29842,-1.96243 c -0.33054,-0.49956 -0.6795,-0.6278 -1.0469,-0.38473 -0.17473,0.11562 -0.26733,0.28479 -0.27779,0.50751 -0.0105,0.22273 0.0584,0.4461 0.20664,0.67012 l 1.27396,1.92546 -1.06186,0.70257 -1.31176,-1.98259 c -0.32165,-0.48612 -0.6628,-0.60987 -1.02348,-0.37123 -0.18146,0.12006 -0.27908,0.28772 -0.29287,0.50298 -0.0138,0.21526 0.0608,0.4461 0.22388,0.69252 l 1.26508,1.91203 -1.06187,0.70257 -2.27668,-3.44097 1.06186,-0.70257 0.35573,0.53765 0.0135,-0.009 c -0.0118,-0.25633 0.0433,-0.50776 0.16523,-0.75432 0.12192,-0.24654 0.3005,-0.44763 0.53572,-0.60327 0.48612,-0.32163 0.96035,-0.3278 1.42267,-0.0185 -0.021,-0.6013 0.22277,-1.07018 0.7313,-1.40665 0.74823,-0.49505 1.42768,-0.28109 2.03836,0.64187 z" />
      </g>
    </g>
  </g>
</svg>
